<?xml version="1.0" encoding="iso-8859-1"?>
<!-- Generator: Adobe Illustrator 19.0.0, SVG Export Plug-In . SVG Version: 6.00 Build 0)  -->
<svg version="1.1" id="Capa_1" xmlns="http://www.w3.org/2000/svg" xmlns:xlink="http://www.w3.org/1999/xlink" x="0px" y="0px"
	 viewBox="0 0 110 110" style="enable-background:new 0 0 110 110;" xml:space="preserve">
<g id="_x30_305-wine">
	<g>
		<path style="fill-rule:evenodd;clip-rule:evenodd;" d="M55.486,101.728c0.164-1.217-0.225-1.882-0.243-2.92
			c0.125-5.15-0.135-9.918-0.243-14.838c-0.387-1.479-0.419-3.312-0.729-4.865c-0.199-10.752,0.465-22.815-0.486-32.111
			c-1.279-4.398-3.51-7.844-5.352-11.676c-1.102-1.333-2.325-2.543-3.163-4.137c-1.174-3.773-1.271-8.621-1.702-13.137
			c-0.172-0.9,0.852-0.605,1.215-0.973c0.217-0.514,0.74-0.721,0.731-1.461c-0.506-1.197,0.067-3.473-0.487-4.62
			c-0.313-0.418-0.503-0.958-1.217-0.974c-0.37-0.439-1.668,0.045-1.459-0.973c0.219-2.746,0.168-6.855-1.217-8.758
			c-0.783,0.053-1.029-0.43-1.946-0.244c-0.311,0.014-0.336,0.312-0.731,0.244c-1.583,0.293-2.309-0.052-4.135,0
			c-1.021,0.519-2.051,1.029-2.919,1.702c0.17,2.669-1.005,5.068-0.244,7.541c-1.015,0.364-2.412,0.345-3.163,0.974
			c-0.698,1.418-1.03,3.922-0.486,5.838c0.446,0.365,0.606,1.016,1.215,1.216c0.386,0.507,1.932-0.147,1.703,0.974
			c-0.057,3.889,0.184,6.648,0,10.218c-0.568,0.487-0.405,1.702-0.972,2.19c-0.153,0.903-0.685,1.424-0.974,2.19
			c-0.664,1.444-1.723,2.492-2.432,3.892c-1.846,2.37-2.746,5.688-3.892,8.756c-1.967,6.55-2.077,14.953-2.19,23.354
			c0.228,0.826,0.326,1.784,0.486,2.677c-0.139,9.139,0.738,17.263,0.487,26.517c0.348,2.488,0.607,5.068,0.973,7.541
			c0.88,0.983,2.011,1.718,2.919,2.676c3.736,0.967,8.066,1.339,12.65,1.459c3.6-0.293,7.039-0.746,9.974-1.702
			c1.388-0.558,2.958-0.937,4.136-1.704c1.065,0.093,1.25-0.695,2.189-0.729c0.521-0.453,1.451-0.496,1.459-1.459
			C55.799,103.988,55.332,102.549,55.486,101.728z M42.106,13.18c-0.009,1.611-2.319,0.923-3.65,1.216
			c-0.687,0.203-1.5,0.283-2.188,0.486c-0.252-0.641-0.291-1.492-0.244-2.433c0.939-0.048,1.792-0.008,2.432,0.243
			C39.626,12.903,41.701,12.207,42.106,13.18z M38.214,3.205v1.461c0.3,0.785-0.787,0.186-0.487,0.973
			c-0.213,0.781,0.63,0.504,0.729,0.973c0.005,1.058,0.081,2.188-0.243,2.919h-4.136c0.042-2.231-0.266-4.112-0.729-5.839
			C34.321,2.92,36.722,2.696,38.214,3.205z M33.106,12.45h0.729c0.148,0.966,0.717,2.199,0,2.677
			C32.862,14.965,33.129,13.56,33.106,12.45z M24.347,56.237c0.132-5.948,1.149-11.013,3.164-15.081
			c2.004-4.078,4.969-7.194,6.082-12.164c-0.048-3.44,0.159-7.133-0.244-10.217v-0.731c2.655,0.679,5.569-0.391,8.271,0.243
			c-0.008,1.938-0.322,3.571-0.487,5.351c0.15,3.175,0.253,6.399,1.217,8.759c0.841,1.266,1.418,2.797,2.432,3.892
			c0.146,0.909,0.915,1.193,0.974,2.189c0.618,0.354,0.47,1.475,1.215,1.702c0.574,1.453,1.417,2.639,1.946,4.136
			c0.186,0.42,0.325,0.796,0.487,1.218c0.123,0.316,0.428,0.844,0.486,0.973c0.276,0.604,0.902,1.215,0.729,2.189
			c-4.76,0.348-9.956,0.261-14.109,1.215c-3.048,0.033-6.53-0.366-8.028,1.218c-0.184,2.13,0.304,3.589,0.243,5.595
			C27.83,56.894,25.284,56.819,24.347,56.237z M29.214,83.727c0.03-1.085-0.6-1.509-0.73-2.433c0.202-1.988,0.242-4.136,0.73-5.838
			c0.485,0.648,0.125,2.144,0.486,2.918v1.461c0.195,0.843-0.362,0.934-0.242,1.702c0.087,2.182,0.301,4.241,0.486,6.325
			C28.659,87.324,28.932,85.195,29.214,83.727z M34.808,105.378h-0.729v-0.487c0.207,0.046,0.23-0.095,0.244-0.243h0.486V105.378z
			 M34.565,90.781c0.1-0.586-0.443-0.528-0.243-1.215h1.703C35.8,90.232,35.258,90.584,34.565,90.781z M49.648,102.945
			c-0.927,0.777-1.767,1.639-3.65,1.461c-1.165,0.536-2.552,0.852-4.378,0.729c-0.979-0.795-2.189-1.858-1.703-3.406
			c1.364-0.824,3.897-0.481,5.109-1.459c0.672-0.544,0.76-1.672,1.216-2.433c0.158-1.14-0.318-2.914,0.244-3.648
			c-0.042-0.61,0.373-0.763,0.729-0.974h1.459C50.495,94.869,49.934,99.966,49.648,102.945z M38.214,90.052
			c0.5-0.562,2.101-0.17,2.676,0C40.708,91.392,38.771,90.494,38.214,90.052z M50.864,84.456c-2.486,0.352-5.028,0.647-7.297,1.218
			c-2.494-0.021-4.823-0.206-7.056-0.487c-1.16-0.188-1.565,0.38-2.676,0.243c-0.332-1.209-0.42-2.66-0.486-4.135
			c-0.176-0.744,0.249-0.887,0.244-1.459c0.018-5.371-0.095-10.609-0.487-15.57v-3.406c-0.349-1.029-0.097-2.66-0.487-3.649
			c0.079-1.223-0.599-2.682-0.243-3.404c6.434,0.106,11.894-0.759,18.488-0.487c0.026,4.354,0.404,8.354,0.244,12.892
			c-0.593-1.027-0.502-2.742-1.946-2.918c-1.613-0.398-1.143,1.289-2.189,1.459c-0.579-1.365-1.344-2.548-3.163-2.676
			c-1.472,0.068-1.724,1.357-2.189,2.433c-0.929-0.287-0.775-1.657-1.703-1.946c-0.428,0.141-1.429-0.293-1.46,0.244
			c-0.814-0.062-1.335-1.219-2.188-0.488c-1.022,0.803-0.221,2.846-0.244,4.137c0.512,0.299,0.157,1.465,0.729,1.702
			c-0.018,0.829,0.716,0.907,1.217,1.218c1.03,0.057,1.441-0.505,1.703-1.218c0.868,0.267,0.964,1.307,1.946,1.461
			c1.65-0.376,1.994-2.061,2.432-3.648c1.387,0.802,0.821,3.558,2.919,3.648c1.248,0.112,1.617-0.655,2.189-1.218
			c0.729-0.324,1.639-0.469,1.703-1.459c0.558,0.416,0.089,1.857,0.244,2.677v2.918c0.201,0.688-0.342,0.632-0.244,1.218V84.456z
			 M51.107,92.484c0.046-0.275,0.245-0.135,0.244,0C51.304,92.761,51.106,92.621,51.107,92.484z M36.511,5.152
			c0.092-1.113-0.776-1.267-1.459-0.974v0.974C35.363,5.485,36.2,5.485,36.511,5.152z M35.781,8.314
			c0.993,0.102,1.536-0.25,1.46-1.215C36.586,5.343,34.39,7.254,35.781,8.314z M77.623,80.079c1.065,0.091,1.251-0.696,2.189-0.73
			c1.959-1.366,4.041-2.609,5.838-4.136c0.113-0.779,0.926-0.857,0.973-1.703c0.741-0.15,0.476-1.309,1.216-1.459
			c0.222-1.643,1.17-2.561,1.216-4.379c0.713-1.232,0.629-3.264,0.974-4.865v-4.867c-0.205-0.606-0.319-1.303-0.244-2.188
			c-0.221-0.671-0.076-1.708-0.487-2.19c-0.285-3.121-1.459-5.354-1.946-8.271c-0.917-1.191-1.657-2.559-2.676-3.648
			c-3.434-1.694-9.393-2.098-14.352-1.461c-3.492-0.168-5.844,0.807-8.271,1.703c-4.751,4.09-5.34,12.338-5.108,21.408
			c0.667,5.496,2.555,9.772,5.595,12.893c1.419,0.851,2.801,1.74,4.378,2.433c1.625,0.727,3.686,1.018,4.623,2.433
			c0.099,5.415,0.275,10.752,0.729,15.812c-1.434,1.809-3.361,3.128-5.595,4.135c-1.912,1.008-5.356,0.484-5.839,2.921
			c-0.003,2.679,2.511,2.843,4.136,3.892c4.358,0.913,9.442,1.1,14.84,0.973c2.043-0.389,3.88-0.984,5.838-1.459
			c1.333-1.182,3.906-1.121,3.892-3.648c-0.046-0.765-0.451-1.17-1.216-1.217c-0.32-0.49-0.8-0.822-1.46-0.973
			c-1.162-0.541-2.426-0.98-3.649-1.459c-0.906-0.717-2.441-0.803-3.405-1.462c-1.168-0.534-2.742-0.663-3.406-1.702v-4.136
			c-0.584-0.875,0.138-3.057-0.486-3.892c0.171-1.632-0.251-2.67-0.243-4.137c0.195-1.56-0.656-2.724,0.243-3.648
			C75.934,80.172,77.201,80.547,77.623,80.079z M68.622,42.371c1.866-0.078,3.511-0.38,5.595-0.243
			c1.845-0.507,4.578-0.124,6.811-0.243c0.578,0.396,1.475,0.473,2.19,0.73c0.254,0.719,1.231,0.715,0.974,1.945
			c-0.539,2.366-3.673,1.703-6.325,1.703h-8.028c-1.865-0.568-4.905,0.039-5.352-1.946C64.601,42.405,66.958,42.734,68.622,42.371z
			 M76.407,101.728c1.567,0.462,2.939,1.117,4.379,1.703c-0.176,0.879-1.854,0.256-2.433,0.731h-5.352
			c-1.082-0.297-2.493-0.266-3.892-0.243c1.18-1.173,3.039-1.665,3.892-3.163c0.605,0.037,1.01-0.125,1.216-0.486
			C75.452,100.25,75.576,101.344,76.407,101.728z M73.488,58.183h-6.082c-2.14-0.212-4.117-0.586-6.569-0.485
			c-0.108-4.003,0.203-7.582,0.974-10.704c5.632,2.257,15.649,2.548,22.624,1.215c0.654,2.915,1.601,5.536,1.703,9.002
			c-0.461,0.432-1.607,0.177-2.433,0.244c0.087,2.668,0.377,5.137,0.243,8.027c-0.665,2.255-0.806,5.033-3.892,4.864
			c-2.045-1.156-1.164-3.714-0.974-6.325c0.147-2.002-0.1-4.146,0.244-5.838C77.877,58.008,75.835,58.183,73.488,58.183z
			 M45.756,74.238c-2.009-0.061-4.107-0.213-4.379,1.461c0.459,0.676,1.04,1.23,2.19,1.217h3.648
			c1.103-0.438,2.908-0.173,2.919-1.703C50.082,73.426,47.124,73.991,45.756,74.238z M44.782,80.807
			c0.19,0.054,0.283,0.204,0.244,0.487c1.5,0.039,3.04,0.123,3.162-1.216C47.678,78.898,44.559,79.109,44.782,80.807z"/>
	</g>
</g>
<g>
</g>
<g>
</g>
<g>
</g>
<g>
</g>
<g>
</g>
<g>
</g>
<g>
</g>
<g>
</g>
<g>
</g>
<g>
</g>
<g>
</g>
<g>
</g>
<g>
</g>
<g>
</g>
<g>
</g>
</svg>
